# Blender 4.3.2
# www.blender.org
mtllib CeilingLamp.mtl
o Cube.002
v -2.874003 3.518730 2.127795
v -3.121936 3.518730 2.230492
v -3.472565 3.518730 1.879863
v -3.121936 3.518730 2.230492
v -3.369868 3.518730 2.127795
v -3.121936 3.518730 1.529233
v -2.874003 3.518730 1.631930
v -2.771307 3.518730 1.879863
v -2.740820 3.653810 1.879863
v -3.121936 3.653810 1.498747
v -2.852446 3.653810 1.610373
v -3.121936 3.518730 1.498747
v -2.740820 3.518730 1.879863
v -2.852446 3.518730 1.610373
v -3.121936 3.653810 2.260979
v -2.740820 3.653810 1.879863
v -2.852446 3.653810 2.149353
v -2.740820 3.518730 1.879863
v -3.121936 3.518730 2.260979
v -2.852446 3.518730 2.149353
v -3.121936 3.653810 1.498747
v -3.503052 3.653810 1.879863
v -3.391426 3.653810 1.610373
v -3.503052 3.518730 1.879863
v -3.121936 3.518730 1.498747
v -3.391426 3.518730 1.610373
v -3.503052 3.653810 1.879863
v -3.121936 3.653810 2.260979
v -3.391426 3.653810 2.149353
v -3.121936 3.518730 2.260979
v -3.503052 3.518730 1.879863
v -3.391426 3.518730 2.149353
v -2.771307 3.518730 1.879863
v -3.121936 3.518730 1.529233
v -3.369868 3.518730 1.631930
v -3.472565 3.518730 1.879863
v -2.874003 3.574116 1.631930
v -3.121936 3.574116 1.529233
v -3.121936 3.574116 1.529233
v -3.121936 3.574116 2.230492
v -3.121936 3.574116 2.230492
v -2.771307 3.574116 1.879863
v -3.369868 3.574116 1.631930
v -3.472565 3.574116 1.879863
v -3.369868 3.574116 2.127795
v -2.874003 3.574116 2.127795
v -2.771307 3.574116 1.879863
v -3.472565 3.574116 1.879863
v -2.955682 3.698770 1.713609
v -2.886818 3.698770 1.879863
v -3.121936 3.698770 1.644745
v -3.121936 3.698770 2.114981
v -3.288189 3.698770 2.046116
v -3.357054 3.698770 1.879863
v -2.955682 3.698770 2.046116
v -3.121936 3.698770 2.114981
v -2.886818 3.698770 1.879863
v -3.288189 3.698770 1.713609
v -3.121936 3.698770 1.644745
v -3.357054 3.698770 1.879863
vn -0.0000 -1.0000 -0.0000
vn -0.0000 1.0000 -0.0000
vn 0.9239 -0.0000 -0.3827
vn 0.3827 -0.0000 -0.9239
vn -0.3827 -0.0000 0.9239
vn -0.9239 -0.0000 0.3827
vn 0.3827 -0.0000 0.9239
vn 0.9239 -0.0000 0.3827
vn -0.3827 -0.0000 -0.9239
vn -0.9239 -0.0000 -0.3827
vn 0.1210 0.9487 0.2921
vn -0.1210 0.9487 -0.2921
vn 0.1210 0.9487 -0.2921
vn 0.2921 0.9487 0.1210
vn -0.2921 0.9487 -0.1210
vn -0.2921 0.9487 0.1210
vn -0.1210 0.9487 0.2921
vn 0.2921 0.9487 -0.1210
vt 0.375000 0.875000
vt 0.375000 1.000000
vt 0.375000 0.125000
vt 0.625000 0.125000
vt 0.625000 0.875000
vt 0.625000 0.625000
vt 0.375000 0.625000
vt 0.375000 0.500000
vt 0.625000 0.500000
vt 0.375000 0.375000
vt 0.625000 0.375000
vt 0.625000 1.000000
vt 0.375000 0.000000
vt 0.625000 0.000000
vt 0.375000 0.750000
vt 0.625000 0.750000
vt 0.375000 0.250000
vt 0.625000 0.250000
vt 0.125000 0.625000
vt 0.161612 0.536612
vt 0.250000 0.500000
vt 0.338388 0.536612
vt 0.338388 0.713388
vt 0.250000 0.750000
vt 0.161612 0.713388
vt 0.661612 0.536612
vt 0.750000 0.500000
vt 0.838389 0.536612
vt 0.875000 0.625000
vt 0.838388 0.713388
vt 0.750000 0.750000
vt 0.661612 0.713388
s 0
usemtl Material.001
f 30/1/1 32/2/1 5/2/1 4/1/1
f 31/3/2 27/4/2 22/4/2 24/3/2
f 2/1/2 4/1/2 41/1/2 40/1/2
f 19/1/2 15/5/2 28/5/2 30/1/2
f 16/6/2 9/6/2 50/6/2 57/6/2
f 13/7/2 9/6/2 16/6/2 18/7/2
f 9/6/3 13/7/3 14/8/3 11/9/3
f 11/9/4 14/8/4 12/10/4 10/11/4
f 30/1/5 28/5/5 29/12/5 32/2/5
f 32/13/6 29/14/6 27/4/6 31/3/6
f 15/5/7 19/1/7 20/15/7 17/16/7
f 17/16/8 20/15/8 18/7/8 16/6/8
f 21/11/9 25/10/9 26/17/9 23/18/9
f 23/18/10 26/17/10 24/3/10 22/4/10
f 25/10/2 21/11/2 10/11/2 12/10/2
f 32/13/1 31/3/1 3/3/1 5/13/1
f 25/10/2 12/10/2 6/10/2 34/10/2
f 19/1/2 30/1/2 4/1/2 2/1/2
f 12/10/1 14/8/1 7/8/1 6/10/1
f 14/8/1 13/7/1 8/7/1 7/8/1
f 18/7/1 20/15/1 1/15/1 33/7/1
f 24/3/1 26/17/1 35/17/1 36/3/1
f 20/15/1 19/1/1 2/1/1 1/15/1
f 26/17/1 25/10/1 34/10/1 35/17/1
f 13/7/2 18/7/2 33/7/2 8/7/2
f 31/3/2 24/3/2 36/3/2 3/3/2
f 48/19/1 43/20/1 39/21/1 38/21/1 37/22/1 42/7/1 47/7/1 46/23/1 40/24/1 41/24/1 45/25/1 44/19/1
f 4/1/4 5/2/4 45/2/4 41/1/4
f 33/7/10 1/15/10 46/15/10 47/7/10
f 7/8/6 8/7/6 42/7/6 37/8/6
f 8/7/2 33/7/2 47/7/2 42/7/2
f 6/10/5 7/8/5 37/8/5 38/10/5
f 3/3/2 36/3/2 48/3/2 44/3/2
f 35/17/7 34/10/7 39/10/7 43/17/7
f 36/3/8 35/17/8 43/17/8 48/3/8
f 34/10/2 6/10/2 38/10/2 39/10/2
f 1/15/9 2/1/9 40/1/9 46/15/9
f 5/13/3 3/3/3 44/3/3 45/13/3
f 50/6/2 49/26/2 51/27/2 59/27/2 58/28/2 60/29/2 54/29/2 53/30/2 52/31/2 56/31/2 55/32/2 57/6/2
f 15/5/11 17/16/11 55/16/11 56/5/11
f 21/11/12 23/18/12 58/18/12 59/11/12
f 11/9/13 10/11/13 51/11/13 49/9/13
f 17/16/14 16/6/14 57/6/14 55/16/14
f 23/18/15 22/4/15 60/4/15 58/18/15
f 22/4/2 27/4/2 54/4/2 60/4/2
f 27/4/16 29/14/16 53/14/16 54/4/16
f 10/11/2 21/11/2 59/11/2 51/11/2
f 29/12/17 28/5/17 52/5/17 53/12/17
f 28/5/2 15/5/2 56/5/2 52/5/2
f 9/6/18 11/9/18 49/9/18 50/6/18
o Cylinder.001
v -3.121936 3.687740 1.766366
v -3.041682 3.687740 1.799608
v -3.008439 3.687740 1.879863
v -3.041682 3.687740 1.960117
v -3.121936 3.687740 1.993360
v -3.202190 3.687740 1.960117
v -3.235433 3.687740 1.879863
v -3.202190 3.687740 1.799608
v -3.121936 3.725851 1.766366
v -3.041682 3.725851 1.799608
v -3.008439 3.725851 1.879863
v -3.041682 3.725851 1.960117
v -3.121936 3.725851 1.993360
v -3.202190 3.725851 1.960117
v -3.235433 3.725851 1.879863
v -3.202190 3.725851 1.799608
v -3.083907 4.449972 1.841834
v -3.121936 4.449972 1.826082
v -3.121936 3.776036 1.826082
v -3.068155 4.449972 1.879863
v -3.083907 4.449972 1.917892
v -3.121936 4.449972 1.933644
v -3.159965 4.449972 1.917892
v -3.175717 4.449972 1.879863
v -3.159965 4.449972 1.841834
v -3.083907 3.776036 1.841834
v -3.068155 3.776036 1.879863
v -3.083907 3.776036 1.917892
v -3.121936 3.776036 1.933644
v -3.159965 3.776036 1.917892
v -3.175717 3.776036 1.879863
v -3.159965 3.776036 1.841834
vn -0.2575 0.7397 0.6217
vn 0.6217 0.7397 0.2575
vn 0.2575 0.7397 -0.6217
vn -0.2575 0.7397 -0.6217
vn -0.6217 0.7397 0.2575
vn 0.2575 0.7397 0.6217
vn 0.6217 0.7397 -0.2575
vn -0.6217 0.7397 -0.2575
vn -0.0000 -1.0000 -0.0000
vn -0.3827 -0.0000 -0.9239
vn -0.9239 -0.0000 -0.3827
vn -0.9239 -0.0000 0.3827
vn -0.3827 -0.0000 0.9239
vn 0.3827 -0.0000 0.9239
vn 0.9239 -0.0000 0.3827
vn 0.9239 -0.0000 -0.3827
vn 0.3827 -0.0000 -0.9239
vn -0.0000 1.0000 -0.0000
vt 0.375000 0.525000
vt 0.500000 0.525000
vt 0.625000 0.525000
vt 0.750000 0.525000
vt 0.875000 0.525000
vt 1.000000 0.525000
vt 0.000000 0.525000
vt 0.125000 0.525000
vt 0.250000 0.525000
vt 0.750000 0.490000
vt 0.919706 0.419706
vt 0.990000 0.250000
vt 0.919706 0.080294
vt 0.750000 0.010000
vt 0.580294 0.080294
vt 0.510000 0.250000
vt 0.580294 0.419706
vt 0.125000 0.500000
vt 0.000000 0.500000
vt 0.250000 0.500000
vt 0.375000 0.500000
vt 0.500000 0.500000
vt 0.625000 0.500000
vt 0.750000 0.500000
vt 0.875000 0.500000
vt 1.000000 0.500000
vt 1.000000 1.000000
vt 0.875000 1.000000
vt 0.750000 1.000000
vt 0.625000 1.000000
vt 0.500000 1.000000
vt 0.375000 1.000000
vt 0.250000 1.000000
vt 0.419706 0.419706
vt 0.250000 0.490000
vt 0.080294 0.419706
vt 0.010000 0.250000
vt 0.080294 0.080294
vt 0.250000 0.010000
vt 0.419706 0.080294
vt 0.490000 0.250000
vt 0.125000 1.000000
vt 0.000000 1.000000
s 0
f 74/33/19 73/34/19 89/34/19 90/33/19
f 72/35/20 71/36/20 87/36/20 88/35/20
f 70/37/21 69/38/21 79/38/21 86/37/21
f 69/39/22 76/40/22 92/40/22 79/39/22
f 75/41/23 74/33/23 90/33/23 91/41/23
f 73/34/24 72/35/24 88/35/24 89/34/24
f 71/36/25 70/37/25 86/37/25 87/36/25
f 76/40/26 75/41/26 91/41/26 92/40/26
f 61/42/27 62/43/27 63/44/27 64/45/27 65/46/27 66/47/27 67/48/27 68/49/27
f 68/50/28 76/40/28 69/39/28 61/51/28
f 67/52/29 75/41/29 76/40/29 68/50/29
f 66/53/30 74/33/30 75/41/30 67/52/30
f 65/54/31 73/34/31 74/33/31 66/53/31
f 64/55/32 72/35/32 73/34/32 65/54/32
f 63/56/33 71/36/33 72/35/33 64/55/33
f 62/57/34 70/37/34 71/36/34 63/56/34
f 61/58/35 69/38/35 70/37/35 62/57/35
f 79/38/35 78/59/35 77/60/35 86/37/35
f 86/37/34 77/60/34 80/61/34 87/36/34
f 87/36/33 80/61/33 81/62/33 88/35/33
f 88/35/32 81/62/32 82/63/32 89/34/32
f 89/34/31 82/63/31 83/64/31 90/33/31
f 90/33/30 83/64/30 84/65/30 91/41/30
f 77/66/36 78/67/36 85/68/36 84/69/36 83/70/36 82/71/36 81/72/36 80/73/36
f 91/41/29 84/65/29 85/74/29 92/40/29
f 92/40/28 85/74/28 78/75/28 79/39/28
o Sphere
v -2.917058 3.554450 1.674985
v -2.932654 3.486564 1.690580
v -2.977066 3.429013 1.734992
v -3.043533 3.390559 1.801460
v -2.832195 3.554450 1.879863
v -2.854250 3.486564 1.879863
v -2.917058 3.429013 1.879863
v -3.011057 3.390559 1.879863
v -2.917058 3.554450 2.084740
v -2.932654 3.486564 2.069145
v -2.977066 3.429013 2.024733
v -3.043533 3.390559 1.958266
v -3.121936 3.554450 2.169604
v -3.121936 3.486564 2.147548
v -3.121936 3.429013 2.084740
v -3.121936 3.390559 1.990742
v -3.326813 3.554450 2.084740
v -3.311218 3.486564 2.069145
v -3.266806 3.429013 2.024733
v -3.200339 3.390559 1.958266
v -3.411677 3.554450 1.879863
v -3.389621 3.486564 1.879863
v -3.326813 3.429013 1.879863
v -3.232815 3.390559 1.879863
v -3.326813 3.554450 1.674985
v -3.311218 3.486564 1.690580
v -3.266806 3.429013 1.734992
v -3.200339 3.390559 1.801460
v -3.121936 3.377056 1.879863
v -3.121936 3.554450 1.590122
v -3.121936 3.486564 1.612177
v -3.121936 3.429013 1.674985
v -3.121936 3.390559 1.768984
vn 0.2695 -0.7100 -0.6506
vn 0.1549 -0.9144 -0.3741
vn 0.3665 -0.2875 -0.8849
vn 0.0500 -0.9914 -0.1207
vn 0.3741 -0.9144 -0.1549
vn 0.8849 -0.2875 -0.3665
vn 0.1207 -0.9914 -0.0500
vn 0.6506 -0.7100 -0.2695
vn 0.1207 -0.9914 0.0500
vn 0.6506 -0.7100 0.2695
vn 0.3741 -0.9144 0.1549
vn 0.8849 -0.2875 0.3665
vn 0.0500 -0.9914 0.1207
vn 0.2695 -0.7100 0.6506
vn 0.1549 -0.9144 0.3741
vn 0.3665 -0.2875 0.8849
vn -0.1549 -0.9144 0.3741
vn -0.3665 -0.2875 0.8849
vn -0.0500 -0.9914 0.1207
vn -0.2695 -0.7100 0.6506
vn -0.3741 -0.9144 0.1549
vn -0.8849 -0.2875 0.3665
vn -0.1207 -0.9914 0.0500
vn -0.6506 -0.7100 0.2695
vn -0.1207 -0.9914 -0.0500
vn -0.6506 -0.7100 -0.2695
vn -0.3741 -0.9144 -0.1549
vn -0.8849 -0.2875 -0.3665
vn -0.2695 -0.7100 -0.6506
vn -0.1549 -0.9144 -0.3741
vn -0.3665 -0.2875 -0.8849
vn -0.0500 -0.9914 -0.1207
vt 0.750000 0.250000
vt 0.750000 0.375000
vt 0.625000 0.375000
vt 0.625000 0.250000
vt 0.750000 0.125000
vt 0.625000 0.125000
vt 0.750000 0.500000
vt 0.625000 0.500000
vt 0.687500 0.000000
vt 0.500000 0.250000
vt 0.500000 0.125000
vt 0.500000 0.500000
vt 0.500000 0.375000
vt 0.562500 0.000000
vt 0.437500 0.000000
vt 0.375000 0.125000
vt 0.375000 0.375000
vt 0.375000 0.250000
vt 0.375000 0.500000
vt 0.312500 0.000000
vt 0.250000 0.125000
vt 0.250000 0.375000
vt 0.250000 0.250000
vt 0.250000 0.500000
vt 0.125000 0.250000
vt 0.125000 0.125000
vt 0.125000 0.500000
vt 0.125000 0.375000
vt 0.187500 0.000000
vt 0.000000 0.250000
vt 0.000000 0.125000
vt 0.000000 0.500000
vt 0.000000 0.375000
vt 0.062500 0.000000
vt 0.937500 0.000000
vt 1.000000 0.125000
vt 0.875000 0.125000
vt 1.000000 0.250000
vt 1.000000 0.375000
vt 0.875000 0.375000
vt 0.875000 0.250000
vt 1.000000 0.500000
vt 0.875000 0.500000
vt 0.812500 0.000000
s 0
f 124/76/37 123/77/37 94/78/37 95/79/37
f 125/80/38 124/76/38 95/79/38 96/81/38
f 123/77/39 122/82/39 93/83/39 94/78/39
f 121/84/40 125/80/40 96/81/40
f 96/81/41 95/79/41 99/85/41 100/86/41
f 94/78/42 93/83/42 97/87/42 98/88/42
f 121/89/43 96/81/43 100/86/43
f 95/79/44 94/78/44 98/88/44 99/85/44
f 121/90/45 100/86/45 104/91/45
f 99/85/46 98/88/46 102/92/46 103/93/46
f 100/86/47 99/85/47 103/93/47 104/91/47
f 98/88/48 97/87/48 101/94/48 102/92/48
f 121/95/49 104/91/49 108/96/49
f 103/93/50 102/92/50 106/97/50 107/98/50
f 104/91/51 103/93/51 107/98/51 108/96/51
f 102/92/52 101/94/52 105/99/52 106/97/52
f 108/96/53 107/98/53 111/100/53 112/101/53
f 106/97/54 105/99/54 109/102/54 110/103/54
f 121/104/55 108/96/55 112/101/55
f 107/98/56 106/97/56 110/103/56 111/100/56
f 112/101/57 111/100/57 115/105/57 116/106/57
f 110/103/58 109/102/58 113/107/58 114/108/58
f 121/109/59 112/101/59 116/106/59
f 111/100/60 110/103/60 114/108/60 115/105/60
f 121/110/61 116/111/61 120/112/61
f 115/113/62 114/114/62 118/115/62 119/116/62
f 116/111/63 115/113/63 119/116/63 120/112/63
f 114/114/64 113/117/64 117/118/64 118/115/64
f 119/116/65 118/115/65 123/77/65 124/76/65
f 120/112/66 119/116/66 124/76/66 125/80/66
f 118/115/67 117/118/67 122/82/67 123/77/67
f 121/119/68 120/112/68 125/80/68
