# Blender 4.3.2
# www.blender.org
mtllib NightStand.mtl
o Cube.013
v 4.285115 0.037961 -3.026501
v 3.068105 0.037961 -3.026501
v 4.285115 1.498373 -3.026501
v 3.068105 1.498373 -3.026501
v 4.285115 0.037961 -4.045992
v 3.068105 0.037961 -4.045992
v 4.285115 1.498373 -4.045992
v 3.068105 1.498373 -4.045992
v 3.169523 1.498373 -4.045992
v 4.183697 1.498373 -4.045992
v 3.169523 0.037961 -4.045992
v 4.183697 0.037961 -4.045992
v 3.169523 0.037961 -3.026501
v 4.183697 0.037961 -3.026501
v 4.183697 1.498373 -3.026501
v 3.169523 1.498373 -3.026501
v 3.068105 0.037961 -3.111458
v 3.068105 0.037961 -3.961034
v 4.285115 0.037961 -3.961034
v 4.285115 0.037961 -3.111458
v 4.285115 1.498373 -3.111458
v 4.285115 1.498373 -3.961034
v 3.068105 1.498373 -3.961034
v 3.068105 1.498373 -3.111458
v 4.183697 1.498373 -3.961034
v 4.183697 1.498373 -3.111458
v 3.169523 1.498373 -3.961034
v 3.169523 1.498373 -3.111458
v 3.169523 0.037961 -3.961034
v 3.169523 0.037961 -3.111458
v 4.183697 0.037961 -3.961034
v 4.183697 0.037961 -3.111458
v 4.285115 1.425352 -4.045992
v 4.285115 1.425352 -3.026501
v 3.068105 1.425352 -4.045992
v 3.068105 1.425352 -3.026501
v 3.169523 1.425352 -3.026501
v 4.183697 1.425352 -3.026501
v 4.183697 1.425352 -4.045992
v 3.169523 1.425352 -4.045992
v 3.068105 1.425352 -3.111458
v 3.068105 1.425352 -3.961034
v 4.285115 1.425352 -3.961034
v 4.285115 1.425352 -3.111458
v 4.377877 1.497311 -4.025790
v 4.377877 1.497311 -4.123699
v 2.975343 1.497311 -3.046702
v 2.975343 1.497311 -2.948794
v 4.260999 1.497311 -4.123699
v 3.092221 1.497311 -2.948794
v 4.377877 1.426414 -4.123699
v 4.377877 1.426414 -2.948794
v 4.377877 1.497311 -2.948794
v 2.975343 1.426414 -2.948794
v 2.975343 1.497311 -4.123699
v 3.092221 1.497311 -4.123699
v 4.260999 1.497311 -2.948794
v 3.092221 1.426414 -2.948794
v 4.260999 1.426414 -2.948794
v 4.260999 1.426414 -4.123699
v 3.092221 1.426414 -4.123699
v 4.377877 1.497311 -3.046702
v 2.975343 1.497311 -4.025790
v 2.975343 1.426414 -4.123699
v 2.975343 1.426414 -3.046702
v 2.975343 1.426414 -4.025790
v 4.377877 1.426414 -4.025790
v 4.377877 1.426414 -3.046702
v 3.169523 1.425353 -3.026500
v 4.183697 1.425353 -3.026500
v 4.183697 1.425353 -4.045991
v 3.169523 1.425353 -4.045991
v 3.068105 1.352332 -3.111458
v 3.169523 1.352332 -3.111458
v 3.169523 1.352332 -3.026501
v 3.169523 1.352332 -4.045992
v 3.169523 1.352332 -3.961034
v 3.068105 1.352332 -3.961034
v 4.183697 1.352332 -3.961034
v 4.285115 1.352332 -3.961034
v 4.183697 1.352332 -4.045992
v 4.183697 1.352332 -3.111458
v 4.183697 1.352332 -3.026501
v 4.285115 1.352332 -3.111458
v 3.169523 1.405146 -3.111458
v 4.183697 1.405146 -3.111458
v 4.183697 1.405146 -3.961034
v 3.169523 1.405146 -3.961034
v 3.845639 1.425353 -4.045991
v 3.507581 1.425353 -4.045991
v 3.845639 1.425353 -3.026500
v 3.507581 1.425353 -3.026500
v 3.507581 1.352332 -3.026501
v 3.845639 1.352332 -3.026501
v 3.507581 1.352332 -3.111458
v 3.845639 1.352332 -3.111458
v 3.507581 1.352332 -4.045992
v 3.845639 1.352332 -4.045992
v 3.507581 1.352332 -3.961034
v 3.845639 1.352332 -3.961034
v 3.507581 1.405146 -3.111458
v 3.845639 1.405146 -3.111458
v 3.507581 1.405146 -3.961034
v 3.845639 1.405146 -3.961034
v 4.285115 1.352332 -3.677842
v 4.285115 1.352332 -3.394650
v 4.183697 1.352332 -3.677842
v 4.183697 1.352332 -3.394650
v 4.183697 1.405146 -3.677842
v 4.183697 1.405146 -3.394650
v 3.068105 1.352332 -3.394650
v 3.068105 1.352332 -3.677842
v 3.169523 1.352332 -3.394650
v 3.169523 1.352332 -3.677842
v 3.169523 1.405146 -3.394650
v 3.169523 1.405146 -3.677842
v 3.169523 1.152631 -3.026501
v 3.169523 1.152631 -3.111458
v 3.068105 1.152631 -3.111458
v 3.068105 1.152631 -3.961034
v 3.169523 1.152631 -3.961034
v 3.169523 1.152631 -4.045992
v 4.183697 1.152631 -4.045992
v 4.183697 1.152631 -3.961034
v 4.285115 1.152631 -3.961034
v 4.285115 1.152631 -3.111458
v 4.183697 1.152631 -3.111458
v 4.183697 1.152631 -3.026501
v 3.845639 1.352332 -3.026501
v 4.183697 1.152631 -3.026501
v 4.183697 1.152631 -3.111458
v 3.845639 1.352332 -3.111458
v 4.285115 1.352332 -3.394650
v 4.285115 1.152631 -3.111458
v 4.183697 1.152631 -3.111458
v 4.183697 1.352332 -3.394650
v 4.183697 1.152631 -4.045992
v 3.845639 1.352332 -4.045992
v 3.845639 1.352332 -3.961034
v 4.183697 1.152631 -3.961034
v 3.068105 1.152631 -3.961034
v 3.068105 1.352332 -3.677842
v 3.169523 1.352332 -3.677842
v 3.169523 1.152631 -3.961034
v 3.169523 1.152631 -3.026501
v 3.507581 1.352332 -3.026501
v 3.507581 1.352332 -3.111458
v 3.169523 1.152631 -3.111458
v 3.507581 1.352332 -4.045992
v 3.169523 1.152631 -4.045992
v 3.169523 1.152631 -3.961034
v 3.507581 1.352332 -3.961034
v 4.285115 1.152631 -3.961034
v 4.285115 1.352332 -3.677842
v 4.183697 1.352332 -3.677842
v 4.183697 1.152631 -3.961034
v 3.068105 1.352332 -3.394650
v 3.068105 1.152631 -3.111458
v 3.169523 1.152631 -3.111458
v 3.169523 1.352332 -3.394650
v 3.845639 1.352332 -4.045992
v 4.183697 1.352332 -4.045992
v 3.169523 1.352332 -4.045992
v 3.507581 1.352332 -4.045992
v 3.169523 1.152631 -4.045992
v 4.183697 1.152631 -4.045992
v 3.169523 1.152631 -4.045992
v 3.507581 1.352332 -4.045992
v 3.845639 1.352332 -4.045992
v 4.183697 1.152631 -4.045992
v 3.338552 1.300460 -3.111458
v 3.338552 1.300460 -3.026501
v 4.014668 1.300460 -3.111458
v 4.014668 1.300460 -3.026501
v 4.183697 1.300460 -3.819438
v 4.285115 1.300460 -3.819438
v 4.183697 1.300460 -3.253054
v 4.285115 1.300460 -3.253054
v 4.014668 1.300460 -4.045992
v 4.014668 1.300460 -3.961034
v 3.338552 1.300460 -4.045992
v 3.338552 1.300460 -3.961034
v 3.068105 1.300521 -3.819438
v 3.169523 1.300521 -3.819438
v 3.068105 1.300460 -3.253054
v 3.169523 1.300460 -3.253054
vn -0.0000 -1.0000 -0.0000
vn -0.0000 1.0000 -0.0000
vn -0.0000 -0.9999 -0.0137
vn -0.0000 -0.0000 -1.0000
vn -0.0000 0.9999 0.0137
vn -0.0114 0.9999 -0.0000
vn 0.0114 -0.9999 -0.0000
vn -0.0114 -0.9999 -0.0000
vn 0.0114 0.9999 -0.0000
vn 1.0000 -0.0000 -0.0000
vn -1.0000 -0.0000 -0.0000
vn -0.0000 -0.0000 1.0000
vn -0.0000 0.9999 -0.0137
vn -0.0000 -0.9999 0.0137
vn 0.6583 -0.7527 -0.0000
vn -0.2934 -0.9560 -0.0000
vn -0.0000 0.6917 -0.7222
vn -0.0000 0.9390 0.3440
vn -0.0000 -0.6917 -0.7222
vn -0.0000 -0.9391 0.3436
vn 0.2934 -0.9560 -0.0000
vn -0.6583 -0.7527 -0.0000
vn -0.0000 0.9390 -0.3440
vn -0.0000 0.6917 0.7222
vn -0.0000 -0.6916 0.7223
vn -0.0000 -0.9390 -0.3440
vt 0.375000 0.416667
vt 0.375000 0.416667
vt 0.375000 0.500000
vt 0.500000 0.333333
vt 0.500000 0.250000
vt 0.493750 0.416667
vt 0.493750 0.333333
vt 0.375000 0.333333
vt 0.375000 0.250000
vt 0.493750 0.250000
vt 0.500000 0.416667
vt 0.493750 0.500000
vt 0.500000 0.500000
vt 0.500000 0.416667
vt 0.487500 0.250000
vt 0.487500 0.333333
vt 0.487500 0.416667
vt 0.487500 0.416667
vt 0.487500 0.500000
vt 0.493750 0.388889
vt 0.000000 0.000000
vt 0.487500 0.388889
vt 0.487500 0.402778
vt 0.493750 0.361111
vt 0.487500 0.361111
vt 0.487500 0.361111
vt 0.487500 0.388889
vt 0.487500 0.347222
vt 0.487500 0.402778
s 0
usemtl Material.003
f 31/1/1 12/2/1 5/3/1 19/3/1
f 28/4/2 24/5/2 4/5/2 16/4/2
f 39/6/3 40/7/3 61/7/3 60/6/3
f 40/7/4 11/8/4 6/9/4 35/10/4
f 15/11/5 16/4/5 50/4/5 57/11/5
f 4/5/6 24/5/6 47/5/6 48/5/6
f 34/12/7 44/12/7 68/12/7 52/12/7
f 23/5/6 8/5/6 55/5/6 63/5/6
f 33/12/4 5/3/4 12/2/4 39/6/4
f 21/13/2 26/14/2 15/11/2 3/13/2
f 26/14/2 28/4/2 16/4/2 15/11/2
f 18/9/1 6/9/1 11/8/1 29/8/1
f 2/9/1 17/9/1 30/8/1 13/8/1
f 10/11/2 9/4/2 27/4/2 25/14/2
f 7/13/2 10/11/2 25/14/2 22/13/2
f 22/13/2 25/14/2 26/14/2 21/13/2
f 41/10/8 36/10/8 54/10/8 65/10/8
f 3/13/5 15/11/5 57/11/5 53/13/5
f 7/13/9 22/13/9 45/13/9 46/13/9
f 40/7/3 35/10/3 64/10/3 61/7/3
f 9/4/2 8/5/2 23/5/2 27/4/2
f 27/4/2 23/5/2 24/5/2 28/4/2
f 14/2/1 32/1/1 20/3/1 1/3/1
f 5/3/10 33/12/10 43/12/10 19/3/10
f 2/9/11 36/10/11 41/10/11 17/9/11
f 22/13/9 21/13/9 62/13/9 45/13/9
f 42/10/8 41/10/8 65/10/8 66/10/8
f 2/9/12 13/8/12 37/7/12 36/10/12
f 14/2/12 1/3/12 34/12/12 38/6/12
f 18/9/11 42/10/11 35/10/11 6/9/11
f 35/10/8 42/10/8 66/10/8 64/10/8
f 20/3/10 44/12/10 34/12/10 1/3/10
f 73/15/12 17/9/12 30/8/12 74/16/12
f 75/16/11 16/4/11 28/4/11 74/16/11
f 83/17/10 14/2/10 32/1/10 82/18/10
f 84/19/12 21/13/12 26/14/12 82/18/12
f 80/19/4 19/3/4 31/1/4 79/18/4
f 81/17/11 12/2/11 31/1/11 79/18/11
f 76/16/10 9/4/10 27/4/10 77/16/10
f 78/15/12 18/9/12 29/8/12 77/16/12
f 40/7/1 37/7/1 41/10/1 42/10/1
f 38/6/1 39/6/1 43/12/1 44/12/1
f 68/12/10 62/13/10 53/13/10 52/12/10
f 66/10/11 63/5/11 55/5/11 64/10/11
f 59/6/12 52/12/12 53/13/12 57/11/12
f 54/10/12 58/7/12 50/4/12 48/5/12
f 58/7/12 59/6/12 57/11/12 50/4/12
f 54/10/11 48/5/11 47/5/11 65/10/11
f 65/10/11 47/5/11 63/5/11 66/10/11
f 51/12/10 46/13/10 45/13/10 67/12/10
f 67/12/10 45/13/10 62/13/10 68/12/10
f 49/11/4 60/6/4 61/7/4 56/4/4
f 46/13/4 51/12/4 60/6/4 49/11/4
f 56/4/4 61/7/4 64/10/4 55/5/4
f 24/5/6 23/5/6 63/5/6 47/5/6
f 10/11/13 7/13/13 46/13/13 49/11/13
f 33/12/3 39/6/3 60/6/3 51/12/3
f 8/5/13 9/4/13 56/4/13 55/5/13
f 37/7/14 38/6/14 59/6/14 58/7/14
f 9/4/13 10/11/13 49/11/13 56/4/13
f 36/10/14 37/7/14 58/7/14 54/10/14
f 44/12/7 43/12/7 67/12/7 68/12/7
f 16/4/5 4/5/5 48/5/5 50/4/5
f 38/6/14 34/12/14 52/12/14 59/6/14
f 43/12/7 33/12/7 51/12/7 67/12/7
f 21/13/9 3/13/9 53/13/9 62/13/9
f 91/20/1 89/20/1 71/6/1 70/6/1
f 13/8/11 75/16/11 74/16/11 30/8/11
f 24/5/12 73/15/12 74/16/12 28/4/12
f 23/5/12 78/15/12 77/16/12 27/4/12
f 11/8/10 76/16/10 77/16/10 29/8/10
f 10/11/11 81/17/11 79/18/11 25/14/11
f 22/13/4 80/19/4 79/18/4 25/14/4
f 20/3/12 84/19/12 82/18/12 32/1/12
f 15/11/10 83/17/10 82/18/10 26/14/10
f 81/17/2 123/17/2 166/17/2 162/17/2
f 84/19/11 106/19/11 133/19/11 178/19/11 134/19/11 126/19/11
f 73/21/11 111/21/11 157/21/11 185/21/11 158/21/11 119/21/11
f 96/22/4 82/18/4 127/18/4 131/18/4 173/23/4 132/22/4
f 90/24/12 72/7/12 76/16/12 97/25/12
f 44/12/11 43/12/11 80/19/11 105/19/11 106/19/11 84/19/11
f 92/24/4 93/25/4 75/16/4 69/7/4
f 114/16/10 77/16/10 88/16/10 116/16/10
f 100/22/12 79/18/12 87/18/12 104/22/12
f 108/18/11 82/18/11 86/18/11 110/18/11
f 95/26/4 74/16/4 85/16/4 101/26/4
f 82/18/4 96/22/4 102/22/4 86/18/4
f 96/22/4 95/26/4 101/26/4 102/22/4
f 77/16/12 99/26/12 103/26/12 88/16/12
f 99/26/12 100/22/12 104/22/12 103/26/12
f 70/6/4 83/17/4 94/27/4 91/20/4
f 91/20/4 94/27/4 93/25/4 92/24/4
f 71/6/12 89/20/12 98/27/12 81/17/12
f 89/20/12 90/24/12 97/25/12 98/27/12
f 74/16/4 95/26/4 147/26/4 171/28/4 148/16/4 118/16/4
f 99/26/1 97/25/1 98/27/1 100/22/1
f 82/18/10 83/17/10 128/17/10 127/18/10
f 93/25/1 95/26/1 96/22/1 94/27/1
f 69/7/1 72/7/1 90/24/1 92/24/1
f 92/24/1 90/24/1 89/20/1 91/20/1
f 79/18/11 107/18/11 109/18/11 87/18/11
f 107/18/11 108/18/11 110/18/11 109/18/11
f 79/18/10 107/18/10 155/18/10 175/18/10 156/18/10 124/18/10
f 105/19/2 107/18/2 108/18/2 106/19/2
f 74/16/10 113/16/10 115/16/10 85/16/10
f 113/16/10 114/16/10 116/16/10 115/16/10
f 82/18/4 84/19/4 126/19/4 127/18/4
f 113/16/1 111/15/1 112/15/1 114/16/1
f 94/27/2 96/22/2 132/22/2 129/27/2
f 106/19/2 108/18/2 136/18/2 133/19/2
f 100/22/2 98/27/2 138/27/2 139/22/2
f 114/16/2 112/15/2 142/15/2 143/16/2
f 97/25/2 99/26/2 152/26/2 149/25/2
f 95/26/2 93/25/2 146/25/2 147/26/2
f 107/18/2 105/19/2 154/19/2 155/18/2
f 111/15/2 113/16/2 160/16/2 157/15/2
f 78/15/4 77/16/4 121/16/4 120/15/4
f 134/19/2 135/18/2 127/18/2 126/19/2
f 77/16/11 76/16/11 122/16/11 121/16/11
f 113/16/10 74/16/10 118/16/10 159/16/10 186/16/10 160/16/10
f 97/25/2 149/25/2 168/25/2 164/25/2
f 121/16/2 122/16/2 150/16/2 151/16/2
f 77/16/10 114/16/10 143/16/10 184/16/10 144/16/10 121/16/10
f 140/18/2 137/17/2 123/17/2 124/18/2
f 112/21/11 78/21/11 120/21/11 141/21/11 183/21/11 142/21/11
f 125/19/2 124/18/2 156/18/2 153/19/2
f 99/26/12 77/16/12 121/16/12 151/16/12 182/28/12 152/26/12
f 144/16/2 141/15/2 120/15/2 121/16/2
f 105/19/11 80/19/11 125/19/11 153/19/11 176/19/11 154/19/11
f 81/17/10 79/18/10 124/18/10 123/17/10
f 79/18/12 100/22/12 139/22/12 180/23/12 140/18/12 124/18/12
f 117/16/2 118/16/2 148/16/2 145/16/2
f 108/18/10 82/18/10 127/18/10 135/18/10 177/18/10 136/18/10
f 80/19/12 79/18/12 124/18/12 125/19/12
f 93/25/12 75/16/12 117/16/12 145/16/12 172/28/12 146/25/12
f 118/16/2 119/15/2 158/15/2 159/16/2
f 83/17/12 94/27/12 129/27/12 174/29/12 130/17/12 128/17/12
f 75/16/11 74/16/11 118/16/11 117/16/11
f 74/16/12 73/15/12 119/15/12 118/16/12
f 181/28/15 182/28/15 151/16/15 150/16/15
f 179/29/16 180/23/16 139/22/16 138/27/16
f 171/28/15 172/28/15 145/16/15 148/16/15
f 173/23/16 174/29/16 129/27/16 132/22/16
f 175/18/17 176/19/17 153/19/17 156/18/17
f 177/18/18 178/19/18 133/19/18 136/18/18
f 185/15/19 186/16/19 159/16/19 158/15/19
f 183/15/20 184/16/20 143/16/20 142/15/20
f 130/17/2 131/18/2 127/18/2 128/17/2
f 73/21/11 41/21/11 42/21/11 78/21/11 112/21/11 111/21/11
f 150/16/2 122/16/2 165/16/2 167/16/2
f 138/27/2 98/27/2 161/27/2 169/27/2
f 76/16/2 97/25/2 164/25/2 163/16/2
f 163/16/12 150/16/12 181/28/12 164/21/12 149/25/12
f 123/17/2 137/17/2 170/17/2 166/17/2
f 98/27/2 81/17/2 162/17/2 161/27/2
f 122/16/2 76/16/2 163/16/2 165/16/2
f 147/26/21 146/25/21 172/28/21 171/28/21
f 131/18/22 130/17/22 174/29/22 173/23/22
f 155/18/23 154/19/23 176/19/23 175/18/23
f 135/18/24 134/19/24 178/19/24 177/18/24
f 137/17/4 179/29/4 138/27/4 161/27/4 162/17/4
f 137/17/22 140/18/22 180/23/22 179/29/22
f 149/25/21 152/26/21 182/28/21 181/28/21
f 141/15/25 144/16/25 184/16/25 183/15/25
f 157/15/26 160/16/26 186/16/26 185/15/26
o Cube.015
v 4.183697 1.498373 -3.961034
v 4.183697 1.498373 -3.111457
v 3.169523 1.498373 -3.961034
v 3.169523 1.498373 -3.111457
v 3.169523 1.405146 -3.111458
v 4.183697 1.405146 -3.111458
v 4.183697 1.405146 -3.961034
v 3.169523 1.405146 -3.961034
v 3.103635 0.141960 -4.016228
v 3.103635 0.141960 -3.056263
v 4.249585 0.141960 -4.016228
v 4.249585 0.141960 -3.056263
v 3.103635 0.205931 -4.016228
v 3.103635 0.205931 -3.056263
v 4.249585 0.205931 -4.016228
v 4.249585 0.205931 -3.056263
vn -0.0000 1.0000 -0.0000
vn -0.0000 -1.0000 -0.0000
vn -0.0000 -0.0000 1.0000
vn -1.0000 -0.0000 -0.0000
vn -0.0000 -0.0000 -1.0000
vn 1.0000 -0.0000 -0.0000
vt 0.500000 0.416667
vt 0.500000 0.333333
vt 0.487500 0.416667
vt 0.487500 0.333333
vt 0.375000 0.333333
vt 0.375000 0.416667
s 0
usemtl Material.003
f 187/30/27 189/31/27 190/31/27 188/30/27
f 192/32/28 191/33/28 194/33/28 193/32/28
f 200/34/28 199/34/28 201/35/28 202/35/28
f 196/34/27 198/35/27 197/35/27 195/34/27
f 195/34/29 197/35/29 201/35/29 199/34/29
f 197/35/30 198/35/30 202/35/30 201/35/30
f 198/35/31 196/34/31 200/34/31 202/35/31
f 196/34/32 195/34/32 199/34/32 200/34/32
